<?xml version="1.0" standalone="no"?>
<!DOCTYPE svg PUBLIC "-//W3C//DTD SVG 20010904//EN"
 "http://www.w3.org/TR/2001/REC-SVG-20010904/DTD/svg10.dtd">
<svg version="1.0" xmlns="http://www.w3.org/2000/svg"
 width="120.000000pt" height="120.000000pt" viewBox="0 0 120.000000 120.000000"
 preserveAspectRatio="xMidYMid meet">
<metadata>
Created by potrace 1.11, written by Peter Selinger 2001-2013
</metadata>
<g transform="translate(0.000000,120.000000) scale(0.100000,-0.100000)"
fill="#000000" stroke="none">
<path d="M462 1167 c-10 -12 -70 -33 -109 -38 -5 -1 -17 -8 -28 -15 -11 -8
-31 -14 -45 -14 -23 -1 -80 -40 -80 -55 0 -4 -16 -25 -35 -47 -44 -52 -91
-150 -100 -209 -6 -41 -4 -50 22 -80 34 -41 33 -80 -3 -99 -26 -15 -30 -30
-12 -48 12 -12 20 -132 11 -164 -2 -10 -11 -18 -19 -18 -15 0 -18 -18 -8 -44
3 -9 10 -14 14 -11 13 8 17 -4 25 -65 12 -95 51 -137 166 -174 130 -43 446
-54 599 -21 14 3 37 7 52 10 34 4 111 38 149 66 33 23 50 57 53 104 1 17 12
48 25 68 17 28 21 45 16 74 -3 21 -11 41 -18 45 -16 8 -14 115 2 131 18 18 13
36 -16 55 -35 22 -36 53 -1 89 30 32 35 81 12 125 -8 15 -12 28 -10 28 3 0
-10 30 -29 68 -49 98 -154 177 -282 211 -22 6 -46 18 -53 26 -8 9 -18 12 -29
7 -16 -9 -172 -5 -227 4 -20 4 -34 1 -42 -9z"/>
</g>
</svg>
